<?xml version="1.0" standalone="no"?>
<!DOCTYPE svg PUBLIC "-//W3C//DTD SVG 20010904//EN"
 "http://www.w3.org/TR/2001/REC-SVG-20010904/DTD/svg10.dtd">
<svg version="1.0" xmlns="http://www.w3.org/2000/svg"
 width="452.000000pt" height="452.000000pt" viewBox="0 0 452.000000 452.000000"
 preserveAspectRatio="xMidYMid meet">
<metadata>
Created by potrace 1.11, written by Peter Selinger 2001-2013
</metadata>
<g transform="translate(0.000000,452.000000) scale(0.100000,-0.100000)"
fill="#000000" stroke="none">
<path d="M313 4506 c-88 -28 -176 -107 -216 -194 l-22 -47 0 -2005 0 -2005 22
-47 c30 -66 105 -143 172 -175 l56 -28 1940 0 1940 0 56 28 c67 32 142 109
172 175 l22 47 0 2005 0 2005 -28 56 c-32 67 -109 142 -175 172 l-47 22 -1925
2 c-1564 1 -1933 -1 -1967 -11z"/>
</g>
</svg>
